<svg width="20" height="21" viewBox="0 0 20 21" fill="none" xmlns="http://www.w3.org/2000/svg">
<path d="M2.5 7.12679V17.1268C2.5 17.3478 2.5878 17.5598 2.74408 17.716C2.90036 17.8723 3.11232 17.9601 3.33333 17.9601H7.5C7.72101 17.9601 7.93297 17.8723 8.08925 17.716C8.24554 17.5598 8.33333 17.3478 8.33333 17.1268V11.2935H11.6667V17.1268C11.6667 17.3478 11.7545 17.5598 11.9107 17.716C12.067 17.8723 12.279 17.9601 12.5 17.9601H16.6667C16.8877 17.9601 17.0996 17.8723 17.2559 17.716C17.4122 17.5598 17.5 17.3478 17.5 17.1268V7.12679C17.5 6.99742 17.4699 6.86983 17.412 6.75411C17.3542 6.6384 17.2702 6.53775 17.1667 6.46012L10.5 1.46012C10.3558 1.35194 10.1803 1.29346 10 1.29346C9.81969 1.29346 9.64425 1.35194 9.5 1.46012L2.83333 6.46012C2.72984 6.53775 2.64583 6.6384 2.58798 6.75411C2.53012 6.86983 2.5 6.99742 2.5 7.12679ZM4.16667 7.54346L10 3.16846L15.8333 7.54346V16.2935H13.3333V10.4601C13.3333 10.2391 13.2455 10.0272 13.0893 9.87087C12.933 9.71459 12.721 9.62679 12.5 9.62679H7.5C7.27899 9.62679 7.06702 9.71459 6.91074 9.87087C6.75446 10.0272 6.66667 10.2391 6.66667 10.4601V16.2935H4.16667V7.54346Z" fill="#5D5A6A"/>
</svg>
