<svg width="360" height="48" viewBox="0 0 360 48" fill="none" xmlns="http://www.w3.org/2000/svg">
<path d="M16.2614 47H0.792614V3.36364H16.3892C20.7784 3.36364 24.5568 4.23722 27.7244 5.98438C30.892 7.71733 33.3281 10.2102 35.0327 13.4631C36.7514 16.7159 37.6108 20.608 37.6108 25.1392C37.6108 29.6847 36.7514 33.5909 35.0327 36.858C33.3281 40.125 30.8778 42.6321 27.6818 44.3793C24.5 46.1264 20.6932 47 16.2614 47ZM10.0185 39.0952H15.8778C18.6051 39.0952 20.8991 38.6122 22.7599 37.6463C24.6349 36.6662 26.0412 35.1534 26.9787 33.108C27.9304 31.0483 28.4062 28.392 28.4062 25.1392C28.4062 21.9148 27.9304 19.2798 26.9787 17.2344C26.0412 15.1889 24.642 13.6832 22.7812 12.7173C20.9205 11.7514 18.6264 11.2685 15.8991 11.2685H10.0185V39.0952ZM59.1893 47.6392C55.8228 47.6392 52.9251 46.9574 50.4961 45.5938C48.0813 44.2159 46.2205 42.2699 44.9137 39.7557C43.6069 37.2273 42.9535 34.2372 42.9535 30.7855C42.9535 27.419 43.6069 24.4645 44.9137 21.9219C46.2205 19.3793 48.06 17.3977 50.4322 15.9773C52.8185 14.5568 55.6168 13.8466 58.8271 13.8466C60.9862 13.8466 62.9961 14.1946 64.8569 14.8906C66.7319 15.5724 68.3654 16.6023 69.7575 17.9801C71.1637 19.358 72.2575 21.0909 73.0387 23.179C73.82 25.2528 74.2106 27.6818 74.2106 30.4659V32.9588H46.5756V27.3338H65.6665C65.6665 26.027 65.3825 24.8693 64.8143 23.8608C64.2461 22.8523 63.4577 22.0639 62.4492 21.4957C61.4549 20.9134 60.2972 20.6222 58.9762 20.6222C57.5984 20.6222 56.3768 20.9418 55.3114 21.581C54.2603 22.206 53.4364 23.0511 52.8398 24.1165C52.2433 25.1676 51.9379 26.3395 51.9237 27.6321V32.9801C51.9237 34.5994 52.2219 35.9986 52.8185 37.1776C53.4293 38.3565 54.2887 39.2656 55.3967 39.9048C56.5046 40.544 57.8185 40.8636 59.3384 40.8636C60.3469 40.8636 61.2702 40.7216 62.1083 40.4375C62.9464 40.1534 63.6637 39.7273 64.2603 39.1591C64.8569 38.5909 65.3114 37.8949 65.6239 37.071L74.0188 37.625C73.5927 39.642 72.7191 41.4034 71.3981 42.9091C70.0913 44.4006 68.4009 45.5653 66.3271 46.4034C64.2674 47.2273 61.8881 47.6392 59.1893 47.6392ZM89.2106 3.36364V47H80.1339V3.36364H89.2106ZM96.4815 47V14.2727H105.558V47H96.4815ZM101.041 10.054C99.6918 10.054 98.5341 9.60653 97.5682 8.71165C96.6165 7.80256 96.1406 6.71591 96.1406 5.4517C96.1406 4.2017 96.6165 3.12926 97.5682 2.23438C98.5341 1.32528 99.6918 0.870736 101.041 0.870736C102.391 0.870736 103.541 1.32528 104.493 2.23438C105.459 3.12926 105.942 4.2017 105.942 5.4517C105.942 6.71591 105.459 7.80256 104.493 8.71165C103.541 9.60653 102.391 10.054 101.041 10.054ZM143.341 14.2727L131.899 47H121.672L110.23 14.2727H119.818L126.615 37.6889H126.956L133.731 14.2727H143.341ZM161.846 47.6392C158.479 47.6392 155.581 46.9574 153.152 45.5938C150.738 44.2159 148.877 42.2699 147.57 39.7557C146.263 37.2273 145.61 34.2372 145.61 30.7855C145.61 27.419 146.263 24.4645 147.57 21.9219C148.877 19.3793 150.716 17.3977 153.088 15.9773C155.475 14.5568 158.273 13.8466 161.483 13.8466C163.642 13.8466 165.652 14.1946 167.513 14.8906C169.388 15.5724 171.022 16.6023 172.414 17.9801C173.82 19.358 174.914 21.0909 175.695 23.179C176.476 25.2528 176.867 27.6818 176.867 30.4659V32.9588H149.232V27.3338H168.323C168.323 26.027 168.039 24.8693 167.471 23.8608C166.902 22.8523 166.114 22.0639 165.105 21.4957C164.111 20.9134 162.953 20.6222 161.632 20.6222C160.255 20.6222 159.033 20.9418 157.968 21.581C156.917 22.206 156.093 23.0511 155.496 24.1165C154.9 25.1676 154.594 26.3395 154.58 27.6321V32.9801C154.58 34.5994 154.878 35.9986 155.475 37.1776C156.086 38.3565 156.945 39.2656 158.053 39.9048C159.161 40.544 160.475 40.8636 161.995 40.8636C163.003 40.8636 163.926 40.7216 164.765 40.4375C165.603 40.1534 166.32 39.7273 166.917 39.1591C167.513 38.5909 167.968 37.8949 168.28 37.071L176.675 37.625C176.249 39.642 175.375 41.4034 174.054 42.9091C172.748 44.4006 171.057 45.5653 168.983 46.4034C166.924 47.2273 164.544 47.6392 161.846 47.6392ZM182.79 47V14.2727H191.59V19.983H191.931C192.527 17.9517 193.529 16.4176 194.935 15.3807C196.341 14.3295 197.961 13.804 199.793 13.804C200.248 13.804 200.738 13.8324 201.263 13.8892C201.789 13.946 202.25 14.0241 202.648 14.1236V22.1776C202.222 22.0497 201.632 21.9361 200.88 21.8366C200.127 21.7372 199.438 21.6875 198.813 21.6875C197.478 21.6875 196.284 21.9787 195.233 22.5611C194.196 23.1293 193.373 23.9247 192.762 24.9474C192.165 25.9702 191.867 27.1491 191.867 28.4844V47H182.79Z" fill="white"/>
<path d="M207.511 47V3.36364H236.915V10.9702H216.737V21.3679H235.402V28.9744H216.737V39.3935H237V47H207.511ZM253.412 47.6179C251.324 47.6179 249.463 47.2557 247.829 46.5312C246.196 45.7926 244.903 44.706 243.951 43.2713C243.014 41.8224 242.545 40.0185 242.545 37.8594C242.545 36.0412 242.879 34.5142 243.547 33.2784C244.214 32.0426 245.123 31.0483 246.274 30.2955C247.424 29.5426 248.731 28.9744 250.194 28.5909C251.672 28.2074 253.22 27.9375 254.839 27.7812C256.743 27.5824 258.277 27.3977 259.441 27.2273C260.606 27.0426 261.451 26.7727 261.977 26.4176C262.502 26.0625 262.765 25.5369 262.765 24.8409V24.7131C262.765 23.3636 262.339 22.3196 261.487 21.581C260.649 20.8423 259.456 20.473 257.907 20.473C256.274 20.473 254.974 20.8352 254.008 21.5597C253.042 22.2699 252.403 23.1648 252.091 24.2443L243.696 23.5625C244.122 21.5739 244.96 19.8551 246.21 18.4062C247.46 16.9432 249.072 15.821 251.047 15.0398C253.035 14.2443 255.336 13.8466 257.95 13.8466C259.768 13.8466 261.508 14.0597 263.17 14.4858C264.846 14.9119 266.331 15.5724 267.623 16.4673C268.93 17.3622 269.96 18.5128 270.713 19.919C271.466 21.3111 271.842 22.9801 271.842 24.9261V47H263.234V42.4616H262.978C262.453 43.4844 261.75 44.3864 260.869 45.1676C259.988 45.9347 258.93 46.5384 257.694 46.9787C256.458 47.4048 255.031 47.6179 253.412 47.6179ZM256.011 41.3537C257.346 41.3537 258.525 41.0909 259.548 40.5653C260.571 40.0256 261.373 39.3011 261.956 38.392C262.538 37.483 262.829 36.4531 262.829 35.3026V31.8295C262.545 32.0142 262.154 32.1847 261.657 32.3409C261.174 32.483 260.627 32.6179 260.017 32.7457C259.406 32.8594 258.795 32.9659 258.184 33.0653C257.574 33.1506 257.02 33.2287 256.522 33.2997C255.457 33.456 254.527 33.7045 253.731 34.0455C252.936 34.3864 252.318 34.848 251.877 35.4304C251.437 35.9986 251.217 36.7088 251.217 37.5611C251.217 38.7969 251.664 39.7415 252.559 40.3949C253.468 41.0341 254.619 41.3537 256.011 41.3537ZM296.292 14.2727V21.0909H276.583V14.2727H296.292ZM281.057 6.43182H290.134V36.9432C290.134 37.7812 290.262 38.4347 290.517 38.9034C290.773 39.358 291.128 39.6776 291.583 39.8622C292.051 40.0469 292.591 40.1392 293.202 40.1392C293.628 40.1392 294.054 40.1037 294.48 40.0327C294.907 39.9474 295.233 39.8835 295.461 39.8409L296.888 46.5952C296.434 46.7372 295.794 46.9006 294.971 47.0852C294.147 47.2841 293.145 47.4048 291.966 47.4474C289.779 47.5327 287.861 47.2415 286.213 46.5739C284.58 45.9062 283.309 44.8693 282.4 43.4631C281.49 42.0568 281.043 40.2812 281.057 38.1364V6.43182ZM329.024 23.6051L320.714 24.1165C320.572 23.4062 320.267 22.767 319.798 22.1989C319.33 21.6165 318.712 21.1548 317.945 20.8139C317.192 20.4588 316.29 20.2812 315.239 20.2812C313.832 20.2812 312.646 20.5795 311.68 21.1761C310.714 21.7585 310.232 22.5398 310.232 23.5199C310.232 24.3011 310.544 24.9616 311.169 25.5014C311.794 26.0412 312.866 26.4744 314.386 26.8011L320.31 27.9943C323.491 28.6477 325.864 29.6989 327.426 31.1477C328.989 32.5966 329.77 34.5 329.77 36.858C329.77 39.0028 329.138 40.8849 327.874 42.5043C326.624 44.1236 324.905 45.3878 322.717 46.2969C320.544 47.1918 318.037 47.6392 315.196 47.6392C310.864 47.6392 307.412 46.7372 304.841 44.9332C302.284 43.1151 300.786 40.6435 300.345 37.5185L309.273 37.0497C309.543 38.3707 310.196 39.3793 311.233 40.0753C312.27 40.7571 313.598 41.098 315.217 41.098C316.808 41.098 318.087 40.7926 319.053 40.1818C320.033 39.5568 320.53 38.7543 320.544 37.7741C320.53 36.9503 320.182 36.2756 319.5 35.75C318.818 35.2102 317.767 34.7983 316.347 34.5142L310.679 33.3849C307.483 32.7457 305.104 31.6378 303.541 30.0611C301.993 28.4844 301.219 26.4744 301.219 24.0312C301.219 21.929 301.787 20.1179 302.923 18.598C304.074 17.0781 305.686 15.9063 307.76 15.0824C309.848 14.2585 312.291 13.8466 315.089 13.8466C319.223 13.8466 322.476 14.7202 324.848 16.4673C327.234 18.2145 328.626 20.5937 329.024 23.6051ZM354.678 47.554C353.271 47.554 352.064 47.0568 351.055 46.0625C350.061 45.054 349.564 43.8466 349.564 42.4403C349.564 41.0483 350.061 39.8551 351.055 38.8608C352.064 37.8665 353.271 37.3693 354.678 37.3693C356.041 37.3693 357.234 37.8665 358.257 38.8608C359.28 39.8551 359.791 41.0483 359.791 42.4403C359.791 43.3778 359.55 44.2372 359.067 45.0185C358.598 45.7855 357.98 46.4034 357.213 46.8722C356.446 47.3267 355.601 47.554 354.678 47.554Z" fill="#FF8000"/>
</svg>
