<svg width="20" height="21" viewBox="0 0 20 21" fill="none" xmlns="http://www.w3.org/2000/svg">
<path d="M15.9916 14.3856C16.4243 13.8691 16.6631 13.2177 16.6666 12.544C16.6666 11.7704 16.3593 11.0286 15.8124 10.4816C15.2654 9.93459 14.5235 9.6273 13.75 9.6273H13.5166C14.2039 8.81063 14.5815 7.77799 14.5833 6.71064C14.5852 5.94109 14.3934 5.18345 14.0254 4.50757C13.6575 3.83169 13.1253 3.25934 12.4779 2.8433C11.8305 2.42725 11.0888 2.18091 10.3211 2.12699C9.55347 2.07307 8.7846 2.2133 8.08541 2.53476C7.38622 2.85622 6.77922 3.34855 6.3204 3.96635C5.86158 4.58416 5.56569 5.30754 5.46004 6.0698C5.35439 6.83206 5.44237 7.60865 5.71586 8.32796C5.98935 9.04726 6.43956 9.68613 7.02496 10.1856C5.45018 10.7875 4.09498 11.8528 3.13831 13.241C2.18164 14.6291 1.66849 16.2748 1.66663 17.9606C1.66663 18.1816 1.75442 18.3936 1.9107 18.5499C2.06698 18.7062 2.27895 18.794 2.49996 18.794C2.72097 18.794 2.93293 18.7062 3.08922 18.5499C3.2455 18.3936 3.33329 18.1816 3.33329 17.9606C3.33329 16.1925 4.03567 14.4968 5.28591 13.2466C6.53616 11.9963 8.23185 11.294 9.99996 11.294H11.125C10.8809 11.7906 10.7871 12.3478 10.8552 12.897C10.9233 13.4462 11.1503 13.9636 11.5083 14.3856C10.7984 14.7827 10.2071 15.3619 9.79553 16.0635C9.38393 16.7652 9.16684 17.5639 9.16663 18.3773C9.16663 18.5983 9.25442 18.8103 9.4107 18.9666C9.56698 19.1228 9.77895 19.2106 9.99996 19.2106C10.221 19.2106 10.4329 19.1228 10.5892 18.9666C10.7455 18.8103 10.8333 18.5983 10.8333 18.3773C10.8333 17.6038 11.1406 16.8619 11.6876 16.3149C12.2345 15.7679 12.9764 15.4606 13.75 15.4606C14.5235 15.4606 15.2654 15.7679 15.8124 16.3149C16.3593 16.8619 16.6666 17.6038 16.6666 18.3773C16.6666 18.5983 16.7544 18.8103 16.9107 18.9666C17.067 19.1228 17.2789 19.2106 17.5 19.2106C17.721 19.2106 17.9329 19.1228 18.0892 18.9666C18.2455 18.8103 18.3333 18.5983 18.3333 18.3773C18.3331 17.5639 18.116 16.7652 17.7044 16.0635C17.2928 15.3619 16.7016 14.7827 15.9916 14.3856ZM9.99996 9.6273C9.4231 9.6273 8.85919 9.45624 8.37955 9.13575C7.8999 8.81527 7.52607 8.35975 7.30531 7.82679C7.08456 7.29384 7.0268 6.7074 7.13934 6.14162C7.25188 5.57584 7.52966 5.05614 7.93756 4.64824C8.34547 4.24034 8.86517 3.96255 9.43095 3.85001C9.99672 3.73747 10.5832 3.79523 11.1161 4.01599C11.6491 4.23674 12.1046 4.61058 12.4251 5.09022C12.7456 5.56987 12.9166 6.13377 12.9166 6.71064C12.9166 7.48418 12.6093 8.22605 12.0624 8.77303C11.5154 9.32001 10.7735 9.6273 9.99996 9.6273ZM13.75 13.794C13.4184 13.794 13.1005 13.6623 12.8661 13.4279C12.6317 13.1934 12.5 12.8755 12.5 12.544C12.5021 12.2131 12.6345 11.8964 12.8685 11.6625C13.1024 11.4285 13.4191 11.2962 13.75 11.294C14.0815 11.294 14.3994 11.4257 14.6338 11.6601C14.8683 11.8945 15 12.2124 15 12.544C15 12.8755 14.8683 13.1934 14.6338 13.4279C14.3994 13.6623 14.0815 13.794 13.75 13.794Z" fill="#464255"/>
</svg>
