<svg width="20" height="21" viewBox="0 0 20 21" fill="none" xmlns="http://www.w3.org/2000/svg">
<path d="M17.5002 4.62711H2.5002C2.02798 4.62711 1.66687 4.266 1.66687 3.79378C1.66687 3.32156 2.02798 2.96045 2.5002 2.96045H17.5002C17.9724 2.96045 18.3335 3.32156 18.3335 3.79378C18.3335 4.266 17.9724 4.62711 17.5002 4.62711Z" fill="#464255"/>
<path d="M12.5002 9.07145H2.5002C2.02798 9.07145 1.66687 8.71034 1.66687 8.23812C1.66687 7.7659 2.02798 7.40479 2.5002 7.40479H12.5002C12.9724 7.40479 13.3335 7.7659 13.3335 8.23812C13.3335 8.71034 12.9724 9.07145 12.5002 9.07145Z" fill="#464255"/>
<path d="M17.5002 13.5158H2.5002C2.02798 13.5158 1.66687 13.1547 1.66687 12.6825C1.66687 12.2102 2.02798 11.8491 2.5002 11.8491H17.5002C17.9724 11.8491 18.3335 12.2102 18.3335 12.6825C18.3335 13.1547 17.9724 13.5158 17.5002 13.5158Z" fill="#464255"/>
<path d="M12.5002 17.9606H2.5002C2.02798 17.9606 1.66687 17.5995 1.66687 17.1273C1.66687 16.6551 2.02798 16.2939 2.5002 16.2939H12.5002C12.9724 16.2939 13.3335 16.6551 13.3335 17.1273C13.3335 17.5995 12.9724 17.9606 12.5002 17.9606Z" fill="#464255"/>
</svg>
